<svg xmlns="http://www.w3.org/2000/svg" xml:space="preserve" width="55mm" height="90mm" version="1.1" viewBox="0 0 5500 9000" xmlns:xlink="http://www.w3.org/1999/xlink">
  <path class="fil0 str0" d="M1447.68 3099.15c-409.94,487.89 -1159.5,1345.35 -1207.45,1525.91l60.91 3973.92c90.78,315.38 273.53,197.89 429.03,17.78l1199.99 -1159.13c3.39,-71.24 75.74,-510.1 -120.88,-213.32 -673.57,751.4 -227.12,-2798.95 -220.49,-3704.18l17.64 -149.93c32.34,-31.9 55.41,-46.6 97.01,-44.1 86.8,-106.13 168.89,-259.33 8.82,-343.96 -129.56,-58.75 -180.95,13.38 -264.58,97.01zm1037.65 3701.73c-13.35,-43.35 -36.83,-84.81 -40.04,-130.05 -101.89,-1436.43 -38.57,-2601.03 -59.18,-3882.37 -110.56,105.26 -209.02,251.35 -381,222.25 -59.09,-29.98 -153.74,-104.86 -83.18,-279.04l1353.19 -1340.21c222.94,-217.74 448.31,5.68 381,264.59l-232.84 338.66 66.15 3878.8c14.28,105.55 49.39,204.61 -44.98,386.29 -164.29,166.67 -321.03,340.44 -497.42,486.84 -239.42,145.24 -245.64,192.17 -461.7,54.24zm1752.16 -1551.95c51.15,95.25 107.6,148.17 248.71,127 335.14,-224.01 569.73,-516.83 799.04,-846.67 -48.75,-1292.86 -38.81,-2712.86 -216.96,-3735.92 -71.87,-140.94 -169.33,-174.63 -333.37,-95.25 -310.84,210.33 -587,379.05 -687.92,746.12l190.5 3804.72zm185.3 -4513.85c-72.84,64.67 -99.67,182.57 -240.78,201.09 -89.96,-11.47 -182.55,-22.93 -214.31,-161.4 -1.77,-141.98 290.49,-379.51 709.09,-632.35 74.96,-22.05 120.83,-62.62 216.96,44.98 59.87,74.05 83.62,189.59 -18.53,269.87l-452.43 277.81z" fill="#0A2896" stroke="#0A2896"/>
</svg>
