<svg xmlns="http://www.w3.org/2000/svg" xml:space="preserve" width="70mm" height="100mm" version="1.1" viewBox="0 0 7000 10000" xmlns:xlink="http://www.w3.org/1999/xlink">
  <path d="M387.28 3694.86c108.6,-99.23 55.12,-334.03 678,-367.11 307.69,-91.89 132.76,-169.27 856.59,-135.6 343.49,0.02 443.13,-5.61 687.92,-267.9 -23.2,369.86 -275.89,436.41 -426.64,575.48 165.75,170.57 392.46,362.7 532.47,572.16l-208.36 -89.3c17.64,84.89 154.34,226.01 281.12,740.84 -55.12,-49.61 -110.24,-99.22 -165.36,-148.83 33.07,253.56 19.84,517.04 -19.85,760.68 -401.29,1385.77 -345.53,1848.76 242.07,2675.58 -369.33,-407.36 -775.65,-634.97 -764.62,-1795.84 -202.47,288.88 -186.21,938.41 347.32,1682.92 236.31,329.76 729.85,1134.26 -125.73,2031.19 593.12,-1137.71 -163.17,-1699.96 -562.24,-2242.36 -725.41,-963.53 -418.92,-1311.89 46.3,-2116.67 191.83,-389.16 390.26,-963.53 -19.84,-1584.2 88.19,360.5 308.68,912.82 -310.89,1914.93 -34.18,48.51 -68.35,97.01 -102.53,145.52 220.33,-542.33 463.13,-1329.13 105.37,-2023.85 -310.72,-373.79 -654.54,-330.88 -1071.1,-327.64zm2817.9 -3595.03c1766.11,765.09 1455.2,2648.05 403.49,3393.29 -650.44,635.01 -712.18,1805.78 -727.61,2473.85 553.43,-1124.48 1371.44,-1389.06 1521.36,-1230.32 -88.19,216.08 -467.44,551.22 -562.24,826.83 1557.83,-1275.53 1887.96,246.09 -1170.78,892.97 181.03,115.9 621.37,262.85 827.52,268.33 921.06,24.52 529.98,413.04 -939.97,174.84 187.42,178.6 454.2,238.13 701.15,257.97 1144.32,110.24 -205.06,478.45 -436.57,529.17 2215.9,191.83 3168.4,-1223.7 3810.02,-2460.63 -579.88,493.89 -1649.26,1391.27 -2434.18,1025.26 672.49,-227.09 2476.06,-903.99 2374.64,-2824.42 -242.54,747.45 -1027.46,1369.21 -1223.7,1071.56 -90.67,-241.35 589.94,-928.88 622.73,-1774.16 22.48,-579.57 -100.42,-1260.94 -1006.38,-1777.87 1188.42,1095.82 514.17,2637.49 -899.58,3108.85 8.78,-282.73 1078.07,-819.32 1034.61,-1858.61 -38.75,-926.71 -979.87,-1938.51 -1894.51,-2096.91zm-1857.12 3264.4c65.61,-43.33 206.47,-52.23 374.6,-9.56 -159.73,22.82 -215.03,43.36 -374.6,9.56z" fill="#ffffff" stroke="#ffffff" fill-rule="evenodd"/>
</svg>